<?xml version="1.0" encoding="UTF-8" standalone="no"?>
<!-- Created with Inkscape (http://www.inkscape.org/) -->

<svg
   width="552.34119"
   height="308.02203"
   viewBox="0 0 552.34119 308.02203"
   version="1.1"
   id="SVGRoot"
   sodipodi:docname="/tmp/ink_ext_XXXXXX.svgR2CUP1"
   inkscape:export-filename="logo.svg"
   inkscape:export-xdpi="96"
   inkscape:export-ydpi="96"
   xmlns:inkscape="http://www.inkscape.org/namespaces/inkscape"
   xmlns:sodipodi="http://sodipodi.sourceforge.net/DTD/sodipodi-0.dtd"
   xmlns="http://www.w3.org/2000/svg"
   xmlns:svg="http://www.w3.org/2000/svg">
  <sodipodi:namedview
     id="namedview3990"
     pagecolor="#ffffff"
     bordercolor="#666666"
     borderopacity="1.0"
     inkscape:showpageshadow="2"
     inkscape:pageopacity="0.0"
     inkscape:pagecheckerboard="0"
     inkscape:deskcolor="#d1d1d1"
     inkscape:document-units="px"
     showgrid="false"
     inkscape:zoom="0.25"
     inkscape:cx="944.5"
     inkscape:cy="944.5"
     inkscape:window-width="1831"
     inkscape:window-height="1028"
     inkscape:window-x="0"
     inkscape:window-y="0"
     inkscape:window-maximized="0"
     inkscape:current-layer="layer1" />
  <defs
     id="defs3985" />
  <g
     inkscape:label="Layer 1"
     inkscape:groupmode="layer"
     id="layer1"
     style="display:none"
     transform="translate(35.873699,-58.193436)">
    <rect
       style="display:inline;fill:#000000;fill-opacity:1;stroke-width:7.05638;stroke-linecap:round;stroke-linejoin:bevel;paint-order:stroke markers fill"
       id="rect4945"
       width="508.22452"
       height="504.11371"
       x="-2.214509"
       y="1.0746255"
       sodipodi:insensitive="true" />
  </g>
  <g
     inkscape:groupmode="layer"
     id="layer2"
     inkscape:label="Layer 2"
     transform="translate(73.481353,-61.23563)">
    <path
       fill="#ffffff"
       d="m -73.481353,225.91193 c 0,-61.38204 49.730354,-111.0628 110.963651,-111.0628 5.632452,0 14.725726,0.82702 20.278859,1.85732 4.767776,0.88107 5.825843,7.25379 1.62579,9.63867 -27.259477,15.52598 -44.018062,44.33289 -44.018062,75.66847 0,54.39103 49.437811,95.69251 103.278485,85.42912 4.74049,-0.89495 8.07189,4.62299 5.0127,8.40408 -20.68049,25.55933 -51.966484,41.12794 -86.177772,41.12794 -61.33246,0 -110.963651,-49.77993 -110.963651,-111.0628 z"
       id="path5312"
       style="fill:#f9f9f9;stroke-width:0.999998"
       inkscape:export-filename="path5312.svg"
       inkscape:export-xdpi="96"
       inkscape:export-ydpi="96" />
  </g>
  <g
     aria-label="حـمـد
عند مُنتصف
الـلـيـل"
     id="text5549"
     style="font-size:144px;line-height:0;fill:#f9f9f9;stroke-width:0.999999"
     transform="translate(35.873699,-58.193436)">
    <path
       d="m 417.95966,116.83406 h 11.8125 q 8.71875,0 16.45312,-1.6875 7.73438,-1.75781 15.89063,-5.20312 8.15625,-3.44532 18.07031,-8.50782 -2.53125,-1.125 -6.39844,-2.601559 -3.79687,-1.546875 -7.38281,-2.882813 -3.58594,-1.40625 -5.55469,-2.039062 -3.79687,-1.265625 -5.13281,-1.265625 -3.72656,0 -7.10156,2.390625 -3.375,2.320312 -5.20313,4.710937 l -4.07812,5.132817 -16.66407,-8.156254 3.51563,-5.765625 q 4.99219,-8.226563 12.51562,-13.78125 7.52344,-5.554688 17.08594,-5.554688 7.10156,0 12.86719,2.390625 5.76562,2.390625 11.32031,5.132813 6.53906,3.234375 11.10938,5.273437 4.64062,1.96875 8.22656,3.164063 3.65625,1.125 7.17187,1.6875 3.58594,0.492187 8.08594,0.773437 v 19.828122 q -5.76562,0.77344 -10.6875,2.53125 -4.85156,1.6875 -9.98437,4.28907 -5.0625,2.53125 -11.39063,5.90625 -9,4.78125 -17.15625,8.4375 -8.15625,3.58593 -16.73437,5.625 -8.57813,1.96875 -19.05469,1.96875 h -11.60156 z"
       style="font-weight:900;font-family:Vazirmatn;-inkscape-font-specification:'Vazirmatn Heavy';text-align:end;text-anchor:end"
       id="path5984" />
    <path
       d="m 378.09247,116.83406 h 42.53906 v 21.79688 h -42.53906 z"
       style="font-weight:900;font-family:Vazirmatn;-inkscape-font-specification:'Vazirmatn Heavy';text-align:end;text-anchor:end"
       id="path5986" />
    <path
       d="m 298.63934,138.63094 h -2.95312 l 0.0703,-21.79688 h 2.53125 q 3.23438,0 5.83594,-2.67187 2.67187,-2.67188 5.27344,-6.89063 2.60156,-4.28906 5.48437,-8.999999 2.95313,-4.710938 6.53906,-8.929688 3.65625,-4.289062 8.4375,-6.960937 4.78125,-2.671875 11.10938,-2.671875 8.08594,0 14.13281,3.375 6.04688,3.375 9.84375,9.070312 3.79688,5.695313 4.92188,12.726567 1.19531,7.03125 3.79687,9.49218 2.60156,2.46094 5.41406,2.46094 h 1.82813 v 21.79688 h -1.89844 q -4.5,0 -8.92969,-2.10938 -4.35937,-2.10937 -6.96093,-4.71094 -3.65625,4.5 -7.94532,6.46875 -4.28906,1.96875 -10.125,1.96875 -7.38281,0 -13.78125,-3.16406 -6.39843,-3.16406 -12.44531,-7.45312 -2.46094,2.39062 -5.0625,4.42968 -2.60156,2.03907 -6.1875,3.30469 -3.51562,1.26563 -8.92969,1.26563 z m 43.03125,-38.25 q -2.8125,0 -5.0625,1.89843 -2.17968,1.82813 -3.79687,4.35938 -1.61719,2.53125 -2.67188,4.71094 4.07813,3.65625 7.59375,5.41406 2.25,1.125 4.14844,1.61719 1.89844,0.42187 3.30469,0.42187 3.44531,0 4.85156,-2.67187 1.40625,-2.67188 1.40625,-5.83594 0,-3.9375 -2.60156,-6.89063 -2.60156,-3.02343 -7.17188,-3.02343 z"
       style="font-weight:900;font-family:Vazirmatn;-inkscape-font-specification:'Vazirmatn Heavy';text-align:end;text-anchor:end"
       id="path5988" />
    <path
       d="m 255.81903,116.83406 h 42.53906 v 21.79688 h -42.53906 z"
       style="font-weight:900;font-family:Vazirmatn;-inkscape-font-specification:'Vazirmatn Heavy';text-align:end;text-anchor:end"
       id="path5990" />
    <path
       d="m 224.03778,107.34187 q 0,-1.75781 -0.84375,-4.57031 -0.77344,-2.882812 -1.54687,-4.640624 l -14.13282,-31.21875 17.78907,-8.71875 17.78906,40.921875 q 1.89844,4.289059 3.375,8.367189 1.54687,4.07812 3.65625,6.75 2.10937,2.60156 5.55469,2.60156 h 2.88281 v 21.79688 h -2.88281 q -7.875,0 -12.86719,-2.95313 -4.92188,-3.02344 -8.50781,-7.45312 -5.41407,4.92187 -12.72657,7.66406 -7.3125,2.67187 -17.64843,2.67187 -6.39844,0 -10.82813,-0.42187 -4.35937,-0.42188 -9.07031,-1.54688 V 114.795 q 4.35937,1.05469 9.42187,1.6875 5.13282,0.5625 9.42188,0.5625 4.57031,0 9.42187,-0.77344 4.92188,-0.77344 8.29688,-2.88281 3.44531,-2.10938 3.44531,-6.04688 z"
       style="font-weight:900;font-family:Vazirmatn;-inkscape-font-specification:'Vazirmatn Heavy';text-align:end;text-anchor:end"
       id="path5992" />
    <path
       d="m 486.93622,206.4825 q -0.87891,-1.6875 -1.33594,-4.04297 -0.45703,-2.35547 -0.45703,-4.18359 0,-4.25391 2.10937,-7.875 2.10938,-3.6211 5.69532,-5.80079 3.58593,-2.21484 7.98047,-2.21484 4.18359,0 7.48828,1.47656 3.33984,1.47657 6.82031,3.86719 l -3.90234,8.92969 q -2.25,-1.33594 -4.5,-2.32031 -2.25,-1.01954 -5.16797,-1.01954 -1.54688,0 -3.16407,0.63282 -1.58203,0.63281 -2.67187,1.79297 -1.05469,1.16015 -1.05469,2.8125 0,1.93359 1.23047,3.76171 1.26563,1.82813 2.49609,2.63672 0.0703,0.0352 0.17579,0 0.14062,-0.0351 0.24609,-0.0703 l 17.54297,-4.18359 v 10.89843 q -8.89453,2.70704 -17.1211,4.25391 -8.1914,1.54688 -15.96093,1.54688 h -3.41016 V 206.4825 Z"
       style="font-weight:900;font-size:72px;line-height:2.5;font-family:Vazirmatn;-inkscape-font-specification:'Vazirmatn Heavy';text-align:end;text-anchor:end"
       id="path5994" />
    <path
       d="m 465.13934,191.8575 9.35157,-1.125 0.73828,10.40625 q 0.17578,2.49609 1.37109,3.9375 1.23047,1.40625 3.97266,1.40625 h 0.70312 v 10.89844 h -0.77344 q -3.44531,0 -6.01171,-1.23047 -2.53125,-1.26563 -4.1836,-3.16407 -2.14453,2.00391 -5.0625,3.19922 -2.91797,1.19532 -6.22265,1.19532 h -3.33985 V 206.4825 h 3.33985 q 3.76171,0 5.13281,-1.51172 1.37109,-1.54688 1.37109,-4.95703 0,-2.10938 -0.10547,-4.14844 -0.10547,-2.07422 -0.28125,-4.00781 z m 2.17969,-18.73828 6.57422,6.57422 -6.57422,6.53906 -6.53906,-6.53906 z"
       style="font-weight:900;font-size:72px;line-height:2.5;font-family:Vazirmatn;-inkscape-font-specification:'Vazirmatn Heavy';text-align:end;text-anchor:end"
       id="path5996" />
    <path
       d="m 439.75653,201.7364 q 0,-0.8789 -0.42187,-2.28515 -0.38672,-1.44141 -0.77344,-2.32031 l -7.06641,-15.60938 8.89453,-4.35937 8.89453,20.46093 q 0.94922,2.14453 1.6875,4.1836 0.77344,2.03906 1.82813,3.375 1.05469,1.30078 2.77734,1.30078 h 1.44141 v 10.89844 h -1.44141 q -3.9375,0 -6.43359,-1.47657 -2.46094,-1.51172 -4.25391,-3.72656 -2.70703,2.46094 -6.36328,3.83203 -3.65625,1.33594 -8.82422,1.33594 -3.19922,0 -5.41406,-0.21094 -2.17969,-0.21094 -4.53516,-0.77344 v -10.89843 q 2.17969,0.52734 4.71094,0.84375 2.56641,0.28125 4.71094,0.28125 2.28516,0 4.71094,-0.38672 2.46093,-0.38672 4.14843,-1.44141 1.72266,-1.05469 1.72266,-3.02344 z"
       style="font-weight:900;font-size:72px;line-height:2.5;font-family:Vazirmatn;-inkscape-font-specification:'Vazirmatn Heavy';text-align:end;text-anchor:end"
       id="path5998" />
    <path
       d="m 383.99872,218.18953 q -3.69141,0 -6.89063,-1.58203 -3.19922,-1.58203 -6.22265,-3.72656 -1.23047,1.19531 -2.53125,2.21484 -1.30078,1.01953 -3.09375,1.65234 -1.75782,0.63282 -4.46485,0.63282 h -1.47656 V 206.4825 h 1.30078 q 1.61719,0 2.91797,-1.33594 1.33594,-1.33594 2.63672,-3.44531 1.30078,-2.14453 2.74219,-4.5 1.47656,-2.35547 3.26953,-4.46485 1.82812,-2.14453 4.21875,-3.48046 2.39062,-1.33594 5.55469,-1.33594 4.53515,0 7.83984,2.14453 3.30469,2.14453 5.0625,5.625 1.79297,3.48047 1.79297,7.52344 0,4.21875 -1.40625,7.6289 -1.3711,3.375 -4.1836,5.37891 -2.77734,1.96875 -7.0664,1.96875 z m -1.6875,-19.93359 q -1.40625,0 -2.53125,0.94921 -1.08985,0.91407 -1.89844,2.17969 -0.80859,1.26563 -1.33594,2.35547 0.98438,0.87891 1.86328,1.51172 0.91407,0.63281 1.6875,1.05469 1.23047,0.66797 2.21485,0.91406 0.98437,0.24609 1.75781,0.24609 1.72266,0 2.42578,-1.33593 0.70313,-1.33594 0.70313,-2.91797 0,-1.96875 -1.30078,-3.44532 -1.30079,-1.51171 -3.58594,-1.51171 z"
       style="font-weight:900;font-size:72px;line-height:2.5;font-family:Vazirmatn;-inkscape-font-specification:'Vazirmatn Heavy';text-align:end;text-anchor:end"
       id="path6000" />
    <path
       d="m 387.33856,174.91219 q -0.66797,-0.0352 -1.19531,-0.0703 -0.52734,-0.0351 -1.33594,-0.17578 -1.93359,2.53125 -5.20312,3.79688 -3.23438,1.26562 -7.73438,1.51172 l -0.5625,-3.375 q 3.23438,-0.28125 5.83594,-0.98438 2.60156,-0.73828 3.97266,-1.82812 -2.35547,-0.31641 -4.32422,-1.79297 -1.9336,-1.47657 -1.9336,-4.53516 0,-2.49609 1.75782,-4.28906 1.79296,-1.82813 4.42968,-1.82813 2.63672,0 4.39453,1.72266 1.75782,1.6875 1.75782,4.42969 0,2.0039 -0.77344,4.11328 0.70312,0.10547 1.33594,0.14062 z m -4.5,-4.11329 q 0.35156,-0.80859 0.59766,-1.6875 0.24609,-0.8789 0.24609,-1.58203 0,-1.19531 -0.73828,-1.89843 -0.70312,-0.70313 -1.75781,-0.70313 -1.23047,0 -2.00391,0.84375 -0.73828,0.84375 -0.73828,1.82813 0,1.47656 1.33594,2.10937 1.37109,0.63281 3.05859,1.08984 z"
       style="font-weight:900;font-size:72px;line-height:2.5;font-family:Vazirmatn;-inkscape-font-specification:'Vazirmatn Heavy';text-align:end;text-anchor:end"
       id="path6002" />
    <path
       d="m 344.48309,191.8575 9.35157,-1.125 0.73828,10.40625 q 0.17578,2.49609 1.37109,3.9375 1.23047,1.40625 3.97266,1.40625 h 0.70312 v 10.89844 h -0.77344 q -3.44531,0 -6.01171,-1.23047 -2.53125,-1.26563 -4.1836,-3.16407 -2.14453,2.00391 -5.0625,3.19922 -2.91797,1.19532 -6.22265,1.19532 h -3.33985 V 206.4825 h 3.33985 q 3.76171,0 5.13281,-1.51172 1.37109,-1.54688 1.37109,-4.95703 0,-2.10938 -0.10547,-4.14844 -0.10547,-2.07422 -0.28125,-4.00781 z m 2.17969,-18.73828 6.57422,6.57422 -6.57422,6.53906 -6.53906,-6.53906 z"
       style="font-weight:900;font-size:72px;line-height:2.5;font-family:Vazirmatn;-inkscape-font-specification:'Vazirmatn Heavy';text-align:end;text-anchor:end"
       id="path6004" />
    <path
       d="m 312.84247,173.43562 6.01172,5.90625 5.9414,-5.90625 6.22266,6.1875 -6.22266,6.25782 -5.9414,-5.97657 -6.01172,5.97657 -6.15235,-6.25782 z m -3.65625,33.04688 h 4.92187 q 3.76172,0 5.13282,-1.51172 1.37109,-1.54688 1.37109,-4.95703 0,-2.10938 -0.10547,-4.14844 -0.10547,-2.07422 -0.28125,-4.00781 l 9.35156,-1.125 0.73828,10.40625 q 0.17579,2.49609 1.3711,3.9375 1.23047,1.40625 3.97265,1.40625 h 0.70313 v 10.89844 h -0.77344 q -3.44531,0 -6.01172,-1.23047 -2.53125,-1.26563 -4.18359,-3.16407 -2.14453,2.00391 -5.0625,3.19922 -2.91797,1.19532 -6.22266,1.19532 h -4.92187 z"
       style="font-weight:900;font-size:72px;line-height:2.5;font-family:Vazirmatn;-inkscape-font-specification:'Vazirmatn Heavy';text-align:end;text-anchor:end"
       id="path6006" />
    <path
       d="m 278.81122,217.38094 h -1.86328 q -5.51953,0 -9.8086,-0.94922 -4.2539,-0.98438 -7.0664,-3.48047 -1.96875,2.03906 -4.71094,3.23437 -2.70703,1.19532 -6.64453,1.19532 h -1.40625 l 0.0352,-10.89844 h 1.3711 q 4.07812,0 5.3789,-1.51172 1.30079,-1.51172 1.30079,-4.99219 0,-2.07422 -0.10547,-4.11328 -0.10547,-2.03906 -0.28125,-3.9375 l 9.35156,-1.16016 0.70312,10.33594 q 0.10547,1.26563 0.45704,2.4961 0.38671,1.23046 1.01953,1.47656 2.25,-3.69141 4.8164,-7.27735 2.60157,-3.58593 5.625,-6.5039 3.02344,-2.95313 6.50391,-4.71094 3.48047,-1.75781 7.52344,-1.75781 4.53515,0 8.01562,1.93359 3.51563,1.89844 5.48438,5.27344 2.0039,3.33984 2.0039,7.69922 0,1.40625 -0.28125,3.41015 -0.24609,2.00391 -0.91406,3.19922 0.80859,0.0352 1.82813,0.10547 1.05468,0.0352 2.39062,0.0352 h 1.01953 v 10.89844 h -0.98437 q -4.14844,0 -6.9961,-1.125 -2.8125,-1.16016 -5.09765,-2.67188 -3.83203,1.65234 -8.6836,2.74219 -4.85156,1.05469 -9.98437,1.05469 z m 12.44531,-21.90235 q -2.70703,0 -5.41406,1.72266 -2.67188,1.6875 -5.0625,4.21875 -2.35547,2.53125 -4.14844,5.0625 h 2.70703 q 3.26953,0 6.36328,-0.17578 3.12891,-0.21094 5.625,-0.8086 2.4961,-0.63281 3.9375,-1.82812 1.47657,-1.19531 1.47657,-3.19922 0,-2.28516 -1.58204,-3.62109 -1.58203,-1.3711 -3.90234,-1.3711 z"
       style="font-weight:900;font-size:72px;line-height:2.5;font-family:Vazirmatn;-inkscape-font-specification:'Vazirmatn Heavy';text-align:end;text-anchor:end"
       id="path6008" />
    <path
       d="m 230.78778,166.82625 6.57422,6.57422 -6.57422,6.53906 -6.53906,-6.53906 z m -19.65234,39.65625 h 2.74218 q 1.44141,0 2.70704,0 1.30078,0 2.60156,-0.0352 -2.25,-3.51562 -2.25,-7.83984 0,-2.88281 1.19531,-5.55469 1.19531,-2.67187 3.19922,-4.78125 2.03906,-2.14453 4.57031,-3.375 2.53125,-1.23047 5.20313,-1.23047 2.74218,0 5.30859,1.23047 2.60156,1.23047 4.67578,3.33984 2.07422,2.10938 3.26953,4.81641 1.23047,2.67188 1.23047,5.625 0,2.17969 -0.52734,4.07813 -0.52735,1.89843 -1.75781,3.72656 h 5.34375 v 10.89844 h -5.02735 q -3.09375,0 -6.36328,-0.91407 -3.26953,-0.91406 -6.15234,-1.86328 -1.96875,0.66797 -4.88672,1.30078 -2.88281,0.63282 -5.8711,1.05469 -2.95312,0.42188 -5.13281,0.42188 h -4.07812 q -5.97657,0 -11.14453,-0.87891 -5.13282,-0.91406 -9,-3.02344 -3.86719,-2.14453 -6.04688,-5.76562 -2.14453,-3.65625 -2.14453,-9.17578 0,-3.33985 0.73828,-6.46875 0.73828,-3.12891 1.82813,-5.76563 l 9.03515,3.41016 q -0.59765,1.6875 -1.26562,3.9375 -0.66797,2.25 -0.66797,4.32422 0,2.67187 1.54687,4.35937 1.54688,1.65234 4.1836,2.56641 2.63672,0.91406 5.97656,1.26562 3.33984,0.31641 6.96094,0.31641 z m 20.03906,-12.375 q -0.94922,0 -2.03906,0.77344 -1.08985,0.77343 -1.86328,1.86328 -0.77344,1.05468 -0.77344,2.0039 0,1.26563 0.80859,2.46094 0.8086,1.19531 1.9336,2.14453 1.125,0.91406 2.0039,1.40625 0.94922,-0.5625 2.07422,-1.47656 1.125,-0.94922 1.89844,-2.10938 0.80859,-1.19531 0.80859,-2.49609 0,-0.98437 -0.84375,-2.03906 -0.80859,-1.05469 -1.93359,-1.79297 -1.125,-0.73828 -2.07422,-0.73828 z"
       style="font-weight:900;font-size:72px;line-height:2.5;font-family:Vazirmatn;-inkscape-font-specification:'Vazirmatn Heavy';text-align:end;text-anchor:end"
       id="path6010" />
    <path
       d="m 511.53387,254.12562 v 82.96875 h -17.16796 v -82.96875 z"
       style="font-weight:900;font-size:120px;font-family:Vazirmatn;-inkscape-font-specification:'Vazirmatn Heavy';text-align:end;text-anchor:end"
       id="path6012" />
    <path
       d="m 448.66278,318.9889 h 4.21875 q 5.97656,0 7.44141,-2.63672 1.46484,-2.63672 1.46484,-8.49609 v -53.73047 h 17.16797 v 55.42969 q 0,13.65234 -6.15234,20.625 -6.15235,6.97265 -19.98047,6.97265 h -4.16016 z"
       style="font-weight:900;font-size:120px;font-family:Vazirmatn;-inkscape-font-specification:'Vazirmatn Heavy';text-align:end;text-anchor:end"
       id="path6014" />
    <path
       d="m 415.44012,318.9889 h 35.44922 v 18.16406 h -35.44922 z"
       style="font-weight:900;font-size:120px;font-family:Vazirmatn;-inkscape-font-specification:'Vazirmatn Heavy';text-align:end;text-anchor:end"
       id="path6016" />
    <path
       d="m 390.53778,308.6764 v -54.55078 h 17.16797 v 54.55078 q 0,5.33203 1.52344,7.85156 1.58203,2.46094 6.67968,2.46094 h 1.75782 v 18.16406 h -1.64063 q -6.15234,0 -10.01953,-1.8164 -3.86719,-1.875 -6.97266,-5.44922 -3.16406,3.39843 -7.5,5.33203 -4.27734,1.93359 -10.95703,1.93359 h -3.16406 V 318.9889 h 2.69531 q 5.625,0 8.02735,-2.34375 2.40234,-2.34375 2.40234,-7.96875 z"
       style="font-weight:900;font-size:120px;font-family:Vazirmatn;-inkscape-font-specification:'Vazirmatn Heavy';text-align:end;text-anchor:end"
       id="path6018" />
    <path
       d="m 344.19012,318.9889 h 35.44922 v 18.16406 h -35.44922 z"
       style="font-weight:900;font-size:120px;font-family:Vazirmatn;-inkscape-font-specification:'Vazirmatn Heavy';text-align:end;text-anchor:end"
       id="path6020" />
    <path
       d="m 300.53778,318.9889 h 8.84766 q 6.26953,0 8.55468,-2.51953 2.28516,-2.57813 2.28516,-8.26172 0,-3.51563 -0.17578,-6.91406 -0.17578,-3.45703 -0.46875,-6.67969 l 15.58594,-1.875 1.23047,17.34375 q 0.29296,4.16016 2.28515,6.5625 2.05078,2.34375 6.6211,2.34375 h 1.17187 v 18.16406 h -1.28906 q -5.74219,0 -10.01953,-2.05078 -4.21875,-2.10937 -6.97266,-5.27344 -3.57422,3.33985 -8.4375,5.33203 -4.86328,1.99219 -10.37109,1.99219 h -8.84766 z m 1.46484,25.3125 10.01954,9.84375 9.90234,-9.84375 10.37109,10.3125 -10.37109,10.42969 -9.90234,-9.96094 -10.01954,9.96094 -10.2539,-10.42969 z"
       style="font-weight:900;font-size:120px;font-family:Vazirmatn;-inkscape-font-specification:'Vazirmatn Heavy';text-align:end;text-anchor:end"
       id="path6022" />
    <path
       d="m 267.5495,318.9889 h 35.44922 v 18.16406 H 267.5495 Z"
       style="font-weight:900;font-size:120px;font-family:Vazirmatn;-inkscape-font-specification:'Vazirmatn Heavy';text-align:end;text-anchor:end"
       id="path6024" />
    <path
       d="m 226.35809,366.21546 q -17.34375,0 -26.30859,-9.3164 -8.90625,-9.25782 -8.90625,-26.36719 0,-6.91406 1.64062,-14.41406 1.64063,-7.5 4.45313,-14.29688 l 15.17578,5.80078 q -1.99219,5.21485 -3.69141,11.48438 -1.64062,6.21093 -1.64062,11.42578 0,8.67187 4.80469,13.18359 4.80468,4.57031 14.47265,4.57031 6.6211,0 10.13672,-2.57812 3.51563,-2.51953 4.80469,-7.14844 1.28906,-4.57031 1.28906,-10.66406 v -73.76953 h 17.16797 v 51.97265 q 0,5.56641 1.52344,9.25782 1.52344,3.63281 6.79687,3.63281 h 1.75782 v 18.16406 h -1.64063 q -2.87109,0 -5.03906,-0.64453 -2.10938,-0.70312 -3.98438,-1.875 -0.82031,9.60938 -4.45312,16.69922 -3.57422,7.14844 -10.48828,11.01562 -6.91407,3.86719 -17.8711,3.86719 z"
       style="font-weight:900;font-size:120px;font-family:Vazirmatn;-inkscape-font-specification:'Vazirmatn Heavy';text-align:end;text-anchor:end"
       id="path6026"
       inkscape:export-filename="logo.svg"
       inkscape:export-xdpi="96"
       inkscape:export-ydpi="96" />
  </g>
</svg>
